<svg width="32" height="25" viewBox="0 0 32 25" fill="none" xmlns="http://www.w3.org/2000/svg">
<path d="M27.0894 2.22613C25.0498 1.28231 22.8626 0.586946 20.5759 0.188682C20.5342 0.180996 20.4926 0.200205 20.4712 0.238623C20.1899 0.743173 19.8783 1.4014 19.6601 1.91876C17.2005 1.5474 14.7536 1.5474 12.3444 1.91876C12.1262 1.3899 11.8033 0.743173 11.5208 0.238623C11.4993 0.201486 11.4577 0.182278 11.4161 0.188682C9.13055 0.585673 6.94341 1.28104 4.90258 2.22613C4.88491 2.23381 4.86977 2.24663 4.85972 2.26326C0.711189 8.5139 -0.425267 14.6109 0.13224 20.6323C0.134763 20.6618 0.15116 20.6899 0.173864 20.7079C2.91095 22.735 5.56228 23.9657 8.16437 24.7814C8.20602 24.7943 8.25014 24.7789 8.27664 24.7443C8.89217 23.8966 9.44086 23.0027 9.9113 22.0627C9.93906 22.0077 9.91256 21.9424 9.85582 21.9206C8.98551 21.5876 8.1568 21.1817 7.35964 20.7207C7.29659 20.6835 7.29154 20.5926 7.34954 20.549C7.5173 20.4223 7.68509 20.2904 7.84527 20.1572C7.87425 20.1329 7.91464 20.1277 7.94871 20.1431C13.1857 22.5545 18.8554 22.5545 24.0306 20.1431C24.0647 20.1264 24.1051 20.1316 24.1353 20.1559C24.2955 20.2891 24.4633 20.4223 24.6323 20.549C24.6903 20.5926 24.6865 20.6835 24.6235 20.7207C23.8263 21.1906 22.9976 21.5876 22.126 21.9193C22.0693 21.9411 22.044 22.0077 22.0718 22.0627C22.5523 23.0014 23.101 23.8953 23.7052 24.743C23.7304 24.7789 23.7758 24.7943 23.8175 24.7814C26.4322 23.9657 29.0835 22.735 31.8206 20.7079C31.8446 20.6899 31.8597 20.663 31.8622 20.6336C32.5294 13.6722 30.7447 7.62517 27.131 2.26454C27.1221 2.24663 27.107 2.23381 27.0894 2.22613ZM10.6934 16.9659C9.11666 16.9659 7.81751 15.506 7.81751 13.7132C7.81751 11.9203 9.09147 10.4604 10.6934 10.4604C12.3078 10.4604 13.5944 11.9331 13.5692 13.7132C13.5692 15.506 12.2952 16.9659 10.6934 16.9659ZM21.3263 16.9659C19.7497 16.9659 18.4505 15.506 18.4505 13.7132C18.4505 11.9203 19.7244 10.4604 21.3263 10.4604C22.9408 10.4604 24.2274 11.9331 24.2022 13.7132C24.2022 15.506 22.9408 16.9659 21.3263 16.9659Z" fill="#5865F2"/>
</svg>
