<svg width="32" height="32" viewBox="0 0 32 32" fill="none" xmlns="http://www.w3.org/2000/svg">
<path d="M15.998 0C7.164 0 0 7.192 0 16.064C0 23.16 4.584 29.18 10.944 31.306C11.744 31.454 12.036 30.958 12.036 30.532C12.036 30.15 12.022 29.14 12.014 27.8C7.564 28.77 6.624 25.646 6.624 25.646C5.898 23.79 4.848 23.296 4.848 23.296C3.394 22.3 4.956 22.32 4.956 22.32C6.562 22.434 7.406 23.976 7.406 23.976C8.834 26.43 11.152 25.722 12.064 25.31C12.208 24.272 12.622 23.564 13.08 23.162C9.528 22.756 5.792 21.378 5.792 15.224C5.792 13.47 6.416 12.036 7.44 10.912C7.274 10.506 6.726 8.872 7.596 6.662C7.596 6.662 8.94 6.23 11.996 8.308C13.272 7.952 14.64 7.774 16.002 7.768C17.36 7.776 18.73 7.952 20.008 8.31C23.062 6.232 24.404 6.664 24.404 6.664C25.276 8.876 24.728 10.508 24.564 10.914C25.59 12.038 26.208 13.472 26.208 15.226C26.208 21.396 22.468 22.754 18.904 23.152C19.478 23.648 19.99 24.628 19.99 26.126C19.99 28.274 19.97 30.006 19.97 30.532C19.97 30.962 20.258 31.462 21.07 31.304C27.42 29.176 32 23.158 32 16.064C32 7.192 24.836 0 15.998 0Z" fill="black"/>
</svg>
