<svg width="32" height="32" viewBox="0 0 32 32" fill="none" xmlns="http://www.w3.org/2000/svg">
<path fill-rule="evenodd" clip-rule="evenodd" d="M3.62407 24.2686C2.72231 25.1691 2.72231 26.635 3.62407 27.5361C4.52519 28.4377 5.99086 28.4377 6.88583 27.5361L7.53716 26.891L10.2532 29.6064C10.7176 30.0715 11.462 30.0715 11.9271 29.6064L15.9747 25.5587C16.4399 25.0944 16.4399 24.3498 15.9747 23.8847L13.2593 21.1694L18.0968 16.3257C19.1319 16.8606 20.3118 17.1625 21.5566 17.1625C25.7315 17.1625 29.1157 13.7789 29.1157 9.60354C29.1157 5.42869 25.7315 2.04443 21.5566 2.04443C17.3813 2.04443 13.9975 5.42869 13.9975 9.60354C13.9975 10.8483 14.2997 12.0282 14.8344 13.0634L3.62407 24.2686ZM18.6492 9.60354C18.6492 7.99874 19.9518 6.69608 21.5565 6.69608C23.1614 6.69608 24.4638 7.99874 24.4638 9.60354C24.4638 11.2083 23.1614 12.5108 21.5565 12.5108C19.9519 12.5108 18.6492 11.2083 18.6492 9.60354Z" fill="#0098FF"/>
</svg>
